<svg width="18" height="19" viewBox="0 0 18 19" fill="none" xmlns="http://www.w3.org/2000/svg">
<path d="M12.6766 10.0056H10.4506V8.85746C10.4506 7.94362 9.7008 7.1938 8.78696 7.1938C7.87312 7.1938 7.1233 7.94362 7.1233 8.85746V10.0056H4.89728V8.85746C4.89728 6.70173 6.65467 4.96777 8.78696 4.96777C10.9427 4.96777 12.6766 6.72516 12.6766 8.85746V10.0056Z" fill="#FFA400"/>
<path d="M13.5903 10.0059H3.98322C3.56144 10.0059 3.2334 10.3339 3.2334 10.7557V17.8555C3.2334 18.2773 3.56144 18.6053 3.98322 18.6053H13.5903C14.012 18.6053 14.3401 18.2773 14.3401 17.8555V10.7557C14.3167 10.3339 13.9886 10.0059 13.5903 10.0059ZM9.25538 14.6688V15.6295C9.25538 15.8872 9.04449 16.1216 8.76331 16.1216C8.50556 16.1216 8.27124 15.9107 8.27124 15.6295V14.6688C7.96663 14.5048 7.77917 14.1767 7.77917 13.8018C7.77917 13.2629 8.22438 12.8177 8.76331 12.8177C9.30224 12.8177 9.74745 13.2629 9.74745 13.8018C9.77088 14.1767 9.55999 14.5048 9.25538 14.6688Z" fill="#003A70"/>
<path d="M2.99927 8.95084H0.679523C0.304614 8.95084 0 8.64623 0 8.27132C0 7.89641 0.304614 7.5918 0.679523 7.5918H2.99927C3.37418 7.5918 3.6788 7.89641 3.6788 8.27132C3.6788 8.64623 3.37418 8.95084 2.99927 8.95084Z" fill="#FFA400"/>
<path d="M4.6397 5.29586C4.49911 5.29586 4.33508 5.24899 4.21792 5.13183L2.39024 3.6322C2.10906 3.39788 2.06219 2.9761 2.29651 2.67149C2.53083 2.39031 2.9526 2.34344 3.25722 2.57776L5.0849 4.0774C5.36608 4.31172 5.41295 4.73349 5.17863 5.03811C5.01461 5.20213 4.82715 5.29586 4.6397 5.29586Z" fill="#FFA400"/>
<path d="M8.78694 3.70223C8.41204 3.70223 8.10742 3.39762 8.10742 3.02271V0.679523C8.10742 0.304614 8.41204 0 8.78694 0C9.16185 0 9.46647 0.304614 9.46647 0.679523V3.02271C9.46647 3.39762 9.16185 3.70223 8.78694 3.70223Z" fill="#FFA400"/>
<path d="M12.9106 5.29586C12.7232 5.29586 12.5123 5.20213 12.3951 5.03811C12.1608 4.75692 12.2077 4.31172 12.4889 4.0774L14.3166 2.57776C14.5977 2.34344 15.0429 2.39031 15.2773 2.67149C15.5116 2.95267 15.4647 3.39788 15.1835 3.6322L13.3559 5.13183C13.2153 5.24899 13.0747 5.29586 12.9106 5.29586Z" fill="#FFA400"/>
<path d="M16.8713 8.95084H14.5282C14.1532 8.95084 13.8486 8.64623 13.8486 8.27132C13.8486 7.89641 14.1532 7.5918 14.5282 7.5918H16.8713C17.2462 7.5918 17.5509 7.89641 17.5509 8.27132C17.5509 8.64623 17.2462 8.95084 16.8713 8.95084Z" fill="#FFA400"/>
</svg>
