<svg width="39" height="20" viewBox="0 0 39 20" fill="none" xmlns="http://www.w3.org/2000/svg">
<path d="M0 7.70907V0.140591H1.82768V6.11571H4.75666V7.70907H0ZM10.8021 5.10814V5.31903V5.52991H6.93582C6.95925 5.67051 7.00612 5.8111 7.07641 5.92825C7.14671 6.04541 7.24044 6.16257 7.3576 6.23287C7.47476 6.3266 7.61535 6.39689 7.75594 6.44376C7.89653 6.49062 8.06055 6.51405 8.20114 6.51405C8.48232 6.51405 8.71664 6.46719 8.9041 6.35003C9.09155 6.2563 9.25558 6.11571 9.37273 5.95169L10.5912 6.72494C10.3334 7.09985 10.0054 7.3576 9.60705 7.56848C9.20871 7.75594 8.71664 7.8731 8.17771 7.8731C7.77937 7.8731 7.40446 7.8028 7.05298 7.68564C6.7015 7.56848 6.39689 7.38103 6.11571 7.14671C5.85796 6.91239 5.64707 6.60778 5.48305 6.2563C5.31903 5.90482 5.24873 5.50648 5.24873 5.06128C5.24873 4.61607 5.31903 4.24116 5.48305 3.88968C5.62364 3.53821 5.83453 3.23359 6.09228 2.99928C6.35003 2.76496 6.65464 2.55407 7.00612 2.43691C7.3576 2.29632 7.73251 2.22603 8.13085 2.22603C8.52919 2.22603 8.88066 2.29632 9.20871 2.41348C9.53676 2.55407 9.81794 2.74152 10.0523 2.97584C10.2866 3.23359 10.474 3.53821 10.5912 3.88968C10.7318 4.26459 10.8021 4.66294 10.8021 5.10814ZM9.18528 4.45205C9.18528 4.17087 9.09155 3.93655 8.92753 3.72566C8.76351 3.51478 8.48232 3.42105 8.13085 3.42105C7.96682 3.42105 7.8028 3.44448 7.66221 3.49134C7.52162 3.53821 7.40446 3.6085 7.2873 3.70223C7.17014 3.79596 7.09985 3.91312 7.02955 4.03028C6.95926 4.14743 6.93582 4.28803 6.91239 4.42862H9.18528V4.45205ZM13.6139 3.70223V5.7408C13.6139 5.99855 13.6608 6.18601 13.7545 6.30316C13.8482 6.42032 14.0122 6.49062 14.27 6.49062C14.3637 6.49062 14.4574 6.49062 14.5512 6.46719C14.6449 6.44376 14.7386 6.42032 14.7855 6.39689L14.8089 7.68564C14.6918 7.73251 14.5277 7.75594 14.3403 7.8028C14.1528 7.82623 13.9654 7.84966 13.7779 7.84966C13.4264 7.84966 13.1218 7.8028 12.8875 7.70907C12.6532 7.61535 12.4423 7.49819 12.3017 7.33417C12.1611 7.17014 12.044 6.95926 11.9971 6.72494C11.9502 6.49062 11.9034 6.23287 11.9034 5.95169V3.70223H11.0364V2.39005H11.8799V0.984138H13.6139V2.39005H14.8558V3.70223H13.6139ZM16.4726 0C15.9571 0 15.5353 0.374909 15.5353 0.866978C15.5353 1.38248 15.8868 1.71052 16.4023 1.71052C16.4491 1.71052 16.496 1.71052 16.5194 1.68709C16.4257 2.062 16.0742 2.34318 15.7228 2.39005H15.6525V3.21016H15.7462C16.168 3.1633 16.5663 2.97584 16.8709 2.69466C17.2693 2.31975 17.4801 1.75739 17.4801 1.1013C17.4801 0.468637 17.0584 0 16.4726 0ZM20.5263 3.95998C20.3857 3.81939 20.2217 3.70223 20.0342 3.6085C19.8468 3.51478 19.6359 3.46791 19.425 3.46791C19.261 3.46791 19.1204 3.49134 18.9798 3.56164C18.8392 3.63193 18.7689 3.72566 18.7689 3.88968C18.7689 4.03028 18.8392 4.14744 19.0032 4.21773C19.1672 4.28803 19.4016 4.35832 19.753 4.42862C19.9639 4.47548 20.1514 4.52234 20.3623 4.61607C20.5732 4.7098 20.7372 4.80353 20.9012 4.92069C21.0652 5.03784 21.2058 5.20187 21.2995 5.38932C21.3933 5.57678 21.4401 5.78766 21.4401 6.04541C21.4401 6.37346 21.3698 6.65464 21.2292 6.88896C21.0887 7.12328 20.9246 7.31073 20.6903 7.45132C20.4794 7.59192 20.2217 7.68564 19.9639 7.75594C19.6827 7.82623 19.425 7.84966 19.1438 7.84966C18.6986 7.84966 18.2768 7.77937 17.8785 7.63878C17.4567 7.49819 17.1052 7.2873 16.8475 7.02955L17.8316 5.99855C17.9956 6.16257 18.1831 6.30316 18.4174 6.42032C18.6517 6.53748 18.8861 6.58435 19.1438 6.58435C19.2844 6.58435 19.425 6.56091 19.5656 6.49062C19.7062 6.42032 19.7765 6.30316 19.7765 6.13914C19.7765 5.97512 19.6827 5.85796 19.5187 5.76423C19.3547 5.69394 19.0735 5.60021 18.722 5.52991C18.5346 5.48305 18.3471 5.43619 18.1597 5.36589C17.9722 5.2956 17.8082 5.20187 17.6676 5.08471C17.527 4.96755 17.4099 4.80353 17.3161 4.6395C17.2224 4.45205 17.1755 4.24116 17.1755 4.00684C17.1755 3.6788 17.2458 3.42105 17.3864 3.18673C17.527 2.95241 17.691 2.78839 17.9019 2.6478C18.1128 2.50721 18.3471 2.39005 18.6049 2.34318C18.8626 2.27289 19.1204 2.24946 19.3781 2.24946C19.7765 2.24946 20.1748 2.31975 20.5497 2.43691C20.9246 2.55407 21.2527 2.74153 21.5104 2.99928L20.5263 3.95998ZM0 16.4726V8.9041H5.08471V10.4506H1.75739V11.8799H4.89725V13.3327H1.75739V14.9026H5.27216V16.4726H0ZM9.88823 16.4726V13.567C9.88823 13.4264 9.8648 13.2859 9.84137 13.1453C9.81794 13.0047 9.77108 12.8875 9.72421 12.7938C9.67735 12.7001 9.58362 12.6063 9.48989 12.5595C9.39617 12.4892 9.25558 12.4657 9.09155 12.4657C8.92753 12.4657 8.78694 12.4892 8.66978 12.5595C8.55262 12.6298 8.45889 12.7001 8.36516 12.8172C8.29487 12.9344 8.22457 13.0515 8.17771 13.1921C8.13085 13.3327 8.10742 13.4733 8.10742 13.6139V16.496H6.35003V11.177H8.03712V11.9034H8.06055C8.13085 11.7862 8.20114 11.6691 8.3183 11.5753C8.41203 11.4582 8.55262 11.3644 8.66978 11.2941C8.81037 11.2238 8.95096 11.1536 9.11498 11.1067C9.27901 11.0598 9.44303 11.0364 9.63048 11.0364C9.98196 11.0364 10.2866 11.1067 10.5443 11.2238C10.8021 11.341 10.9895 11.5285 11.1536 11.7159C11.3176 11.9268 11.4113 12.1611 11.4816 12.4189C11.5519 12.6766 11.5753 12.9344 11.5753 13.2156V16.496H9.88823V16.4726ZM16.168 12.8641C16.0742 12.7469 15.9336 12.6298 15.7696 12.5595C15.6056 12.4892 15.4181 12.4423 15.2541 12.4423C15.0667 12.4423 14.9026 12.4892 14.7621 12.5595C14.6215 12.6298 14.4809 12.7235 14.3871 12.8641C14.2934 13.0047 14.1997 13.1218 14.1294 13.2859C14.0591 13.4499 14.0357 13.6139 14.0357 13.8014C14.0357 13.9888 14.0591 14.1528 14.1294 14.3169C14.1763 14.4809 14.27 14.6215 14.3871 14.7386C14.5043 14.8558 14.6215 14.9729 14.7855 15.0432C14.9495 15.1135 15.1135 15.1604 15.301 15.1604C15.4884 15.1604 15.6525 15.137 15.8399 15.0667C16.0039 14.9964 16.1445 14.9026 16.2617 14.7621L17.2224 15.9571C17.0115 16.168 16.7069 16.332 16.3789 16.4491C16.0274 16.5663 15.6525 16.6366 15.2776 16.6366C14.8558 16.6366 14.4574 16.5663 14.106 16.4491C13.7311 16.332 13.4264 16.1445 13.1453 15.8868C12.8875 15.6525 12.6766 15.3479 12.5126 14.9964C12.3486 14.6449 12.2783 14.2466 12.2783 13.8014C12.2783 13.3561 12.3486 12.9812 12.5126 12.6298C12.6766 12.2783 12.8875 11.9737 13.1453 11.7393C13.403 11.505 13.7311 11.2941 14.106 11.177C14.4809 11.0364 14.8558 10.9895 15.2776 10.9895C15.465 10.9895 15.6525 11.013 15.8399 11.0364C16.0274 11.0833 16.2148 11.1301 16.3789 11.177C16.5429 11.2473 16.7069 11.3176 16.8709 11.4113C17.0115 11.505 17.1521 11.5988 17.2458 11.7159L16.168 12.8641ZM21.2761 12.6063C21.2058 12.5829 21.1121 12.5595 21.0418 12.5595H20.8309C20.5966 12.5595 20.4091 12.6063 20.2451 12.6766C20.0811 12.7704 19.9639 12.8641 19.8702 12.9812C19.7765 13.0984 19.7062 13.239 19.6593 13.3796C19.6124 13.5202 19.589 13.6373 19.589 13.7545V16.4726H17.8316V11.1536H19.5187V11.9268H19.5421C19.6827 11.6456 19.8702 11.4347 20.1279 11.2707C20.3857 11.1067 20.6669 11.013 20.9949 11.013H21.2058C21.2761 11.013 21.323 11.0364 21.3698 11.0364L21.2761 12.6063ZM25.4001 17.2693C25.2829 17.5504 25.1658 17.7848 25.0486 18.0191C24.908 18.23 24.7675 18.4174 24.58 18.5814C24.3925 18.7455 24.1817 18.8392 23.9473 18.9329C23.713 19.0032 23.4084 19.0501 23.0804 19.0501C22.9163 19.0501 22.7523 19.0501 22.5649 19.0266C22.4008 19.0032 22.2368 18.9798 22.1197 18.9329L22.3071 17.4567C22.4008 17.4802 22.4946 17.5036 22.5883 17.527C22.682 17.5504 22.7757 17.5504 22.8695 17.5504C23.1507 17.5504 23.3381 17.4801 23.4553 17.363C23.5724 17.2458 23.6896 17.0584 23.7599 16.8241L23.9239 16.3789L21.6979 11.1536H23.6427L24.8377 14.5746H24.8612L25.9156 11.1536H27.7667L25.4001 17.2693ZM34.1636 13.8014C34.1636 14.1763 34.1168 14.5277 33.9996 14.8792C33.8824 15.2307 33.7184 15.5119 33.5075 15.7931C33.2966 16.0508 33.0155 16.2617 32.7108 16.4257C32.4062 16.5897 32.0313 16.66 31.633 16.66C31.3049 16.66 31.0003 16.5897 30.6957 16.4726C30.4145 16.332 30.1802 16.168 30.0162 15.9336H29.9927V19.0969H28.2354V11.2238H29.899V11.8799H29.9225C30.0865 11.6691 30.3208 11.4816 30.602 11.3176C30.8832 11.1536 31.2346 11.0833 31.633 11.0833C32.0079 11.0833 32.3594 11.1536 32.6874 11.3176C32.992 11.4582 33.2732 11.6691 33.4841 11.9268C33.695 12.1846 33.859 12.4892 33.9762 12.8172C34.0933 13.075 34.1636 13.4264 34.1636 13.8014ZM32.4531 13.8014C32.4531 13.6373 32.4297 13.4733 32.3828 13.3093C32.3359 13.1453 32.2422 13.0047 32.1485 12.8875C32.0547 12.7704 31.9142 12.6532 31.7501 12.5829C31.5861 12.5126 31.4221 12.4657 31.2112 12.4657C31.0003 12.4657 30.8363 12.5126 30.6723 12.5829C30.5082 12.6532 30.3911 12.7704 30.2739 12.8875C30.1568 13.0047 30.0865 13.1687 30.0162 13.3327C29.9459 13.4967 29.9225 13.6608 29.9225 13.8248C29.9225 13.9888 29.9459 14.1528 30.0162 14.3169C30.0865 14.4809 30.1568 14.6215 30.2739 14.7621C30.3911 14.8792 30.5082 14.9964 30.6723 15.0667C30.8363 15.137 31.0003 15.1838 31.2112 15.1838C31.4221 15.1838 31.6095 15.137 31.7501 15.0667C31.9142 14.9964 32.0313 14.8792 32.1485 14.7621C32.2422 14.6449 32.3359 14.4809 32.3828 14.3169C32.4297 14.1294 32.4531 13.9654 32.4531 13.8014ZM36.952 12.4657V14.5043C36.952 14.7621 36.9989 14.9495 37.0926 15.0667C37.1863 15.1838 37.3503 15.2541 37.6081 15.2541C37.7018 15.2541 37.7956 15.2541 37.8893 15.2307C37.983 15.2073 38.0767 15.1838 38.1236 15.1604L38.147 16.4491C38.0299 16.496 37.8658 16.5194 37.6784 16.5663C37.4909 16.5897 37.3035 16.6132 37.116 16.6132C36.7645 16.6132 36.4599 16.5663 36.2256 16.4726C35.9913 16.3789 35.7804 16.2617 35.6398 16.0977C35.4992 15.9336 35.3821 15.7228 35.3352 15.4884C35.2883 15.2541 35.2415 14.9964 35.2415 14.7152V12.4657H34.3979V11.1536H35.2415V9.74764H36.952V11.1536H38.1939V12.4657H36.952Z" fill="#003A70"/>
</svg>
