<svg width="546" height="25" viewBox="0 0 546 25" fill="none" xmlns="http://www.w3.org/2000/svg">
<path d="M74.1029 17.9666C72.7256 19.02 70.9882 19.6484 69.1 19.6484C64.6261 19.6484 61 16.1213 61 11.7695C61 7.41773 64.6261 3.89062 69.1 3.89062C70.9882 3.89062 72.7256 4.51899 74.1029 5.5724C75.4802 4.51945 77.2161 3.89062 79.0999 3.89062C83.5666 3.89062 87.1999 7.42474 87.1999 11.7695C87.1999 16.1143 83.5666 19.6484 79.0999 19.6484C77.2161 19.6484 75.4802 19.0195 74.1029 17.9666ZM79.0999 17.7032C82.4641 17.7032 85.2001 15.041 85.2001 11.7695C85.2001 8.49801 82.4641 5.83583 79.0999 5.83583C77.7644 5.83583 76.5276 6.25562 75.5217 6.96665C76.574 8.29607 77.2 9.96175 77.2 11.7695C77.2 13.5772 76.574 15.2429 75.5217 16.5723C76.5276 17.2834 77.7644 17.7032 79.0999 17.7032Z" fill="#303030"/>
<path d="M399.735 16.2539H398.542C398.39 16.2539 398.306 16.1181 398.414 15.9687L399.707 14.1827L398.389 10.4297C398.32 10.2344 398.409 10.0756 398.627 10.0756H399.689C399.892 10.0756 400.003 10.155 400.047 10.2995L400.802 12.6874L402.492 10.3051C402.603 10.1486 402.681 10.0739 402.874 10.0739H404.003C404.208 10.0739 404.267 10.2566 404.142 10.4305L400.09 16.0847C400.023 16.1919 399.904 16.2562 399.777 16.2562C399.763 16.2562 399.749 16.2554 399.735 16.2539ZM409.93 12.6795C410.047 11.1516 411.135 9.95955 412.749 9.92703C413.444 9.9111 413.942 10.1129 414.137 10.5623C414.192 10.6894 414.252 10.6671 414.274 10.5409L414.316 10.2987C414.343 10.1446 414.394 10.0882 414.498 10.0882H415.647C415.801 10.0882 415.851 10.1851 415.819 10.3829L415.174 14.3201C415.13 14.5854 415.045 14.6545 414.868 14.6545H413.822C413.681 14.6545 413.622 14.5766 413.641 14.4297L413.68 14.1486C413.695 14.0311 413.586 14.0803 413.478 14.1756L413.483 14.178C413.063 14.5512 412.691 14.7895 411.858 14.7895C410.71 14.7895 409.84 13.8611 409.93 12.6795ZM411.523 12.3698C411.423 13.0305 411.907 13.5697 412.602 13.5697C413.297 13.5697 413.947 13.0305 414.047 12.3698C414.147 11.709 413.663 11.1699 412.969 11.1699C412.274 11.1699 411.624 11.709 411.523 12.3698ZM391.75 12.6795C391.867 11.1516 392.955 9.95955 394.569 9.92703C395.264 9.9111 395.762 10.1129 395.957 10.5623C396.012 10.6894 396.072 10.6671 396.094 10.5409L396.136 10.2987C396.163 10.1446 396.214 10.0882 396.318 10.0882H397.469C397.623 10.0882 397.673 10.1851 397.64 10.3829L396.995 14.3201C396.952 14.5854 396.866 14.6545 396.69 14.6545H395.643C395.503 14.6545 395.443 14.5766 395.463 14.4297L395.501 14.1486C395.517 14.0311 395.407 14.0803 395.3 14.1756L395.303 14.178C394.883 14.5512 394.511 14.7895 393.678 14.7895C392.53 14.7895 391.66 13.8611 391.75 12.6795ZM393.344 12.3698C393.244 13.0305 393.728 13.5697 394.423 13.5697C395.118 13.5697 395.767 13.0305 395.868 12.3698C395.968 11.709 395.484 11.1699 394.789 11.1699C394.095 11.1699 393.445 11.709 393.344 12.3698ZM417.429 14.6608H416.221C416.179 14.6627 416.137 14.646 416.109 14.6152C416.08 14.5845 416.067 14.543 416.073 14.502L417.135 7.96156C417.156 7.86966 417.239 7.80384 417.336 7.80276H418.544C418.586 7.80089 418.628 7.81754 418.656 7.84827C418.685 7.87903 418.698 7.92054 418.692 7.96156L417.63 14.502C417.61 14.5946 417.527 14.6611 417.429 14.6624L417.429 14.6608ZM404.403 14.6402C404.215 14.6402 404.15 14.5234 404.191 14.2622L405.165 8.19106C405.213 7.89247 405.328 7.78125 405.538 7.78125H408.358V7.78288C409.425 7.78288 410.41 8.34587 410.275 9.74914C410.112 11.4168 409.193 12.3396 407.744 12.3436H406.479C406.297 12.3436 406.209 12.4881 406.161 12.7843L405.916 14.2987C405.88 14.5274 405.759 14.6402 405.581 14.6402H404.403ZM407.652 9.10668L406.749 9.11063L406.44 11.0324H407.399C407.999 11.0102 408.397 10.606 408.437 9.87701C408.462 9.42838 408.151 9.10668 407.657 9.10667C407.656 9.10667 407.654 9.10667 407.652 9.10668ZM386.224 14.6402C386.036 14.6402 385.97 14.5234 386.012 14.2622L386.984 8.19264C387.033 7.89404 387.148 7.78288 387.358 7.78288H390.177H390.18C391.247 7.78288 392.231 8.34587 392.097 9.74914C391.934 11.4168 391.015 12.3396 389.566 12.3436H388.3C388.118 12.3436 388.029 12.4881 387.982 12.7843L387.737 14.2987C387.7 14.5274 387.58 14.6402 387.402 14.6402H386.224ZM389.474 9.10668L388.571 9.11063L388.261 11.0324H389.221C389.821 11.0102 390.219 10.606 390.259 9.87701C390.283 9.42838 389.973 9.10668 389.479 9.10667C389.477 9.10667 389.475 9.10667 389.474 9.10668Z" fill="#303030"/>
<path d="M261.051 8.50373C261.415 8.38546 261.804 8.32191 262.21 8.32191C263.976 8.32191 265.451 9.5425 265.789 11.1649L268.293 10.668C267.719 7.91094 265.214 5.83594 262.21 5.83594C261.521 5.83594 260.86 5.94507 260.241 6.14613L261.051 8.50373Z" fill="#303030"/>
<path d="M258.096 16.3985L259.79 14.5361C259.034 13.8846 258.557 12.9338 258.557 11.8746C258.557 10.8153 259.033 9.86579 259.789 9.21513L258.095 7.35254C256.811 8.4588 256.001 10.0749 256.001 11.8746C256.001 13.6742 256.811 15.2921 258.096 16.3985Z" fill="#303030"/>
<path d="M265.789 12.5869C265.45 14.2085 263.976 15.4268 262.21 15.4268C261.805 15.4268 261.414 15.3632 261.051 15.2443L260.239 17.603C260.858 17.8039 261.521 17.9127 262.21 17.9127C265.211 17.9127 267.716 15.8412 268.293 13.0865L265.789 12.5869Z" fill="#303030"/>
<path d="M270.484 14.6145C270.402 14.4851 270.29 14.2784 270.223 14.1262C269.827 13.2306 269.808 12.3038 270.143 11.4141C270.511 10.4384 271.214 9.6914 272.123 9.31103C273.266 8.83272 274.529 8.92703 275.625 9.55908C276.32 9.94734 276.813 10.5468 277.188 11.3944C277.236 11.5029 277.278 11.6188 277.319 11.7172L270.484 14.6145ZM272.766 10.7488C271.955 11.088 271.536 11.8284 271.622 12.6965L275.06 11.2575C274.469 10.5819 273.699 10.358 272.766 10.7488ZM275.488 13.8797C275.488 13.8804 275.487 13.881 275.487 13.8816L275.415 13.835C275.21 14.1587 274.89 14.421 274.486 14.5913C273.718 14.9163 273.006 14.8327 272.495 14.3965L272.448 14.4661C272.448 14.4661 272.447 14.4646 272.446 14.4646L271.574 15.7336C271.791 15.88 272.023 16.0039 272.267 16.103C273.231 16.4922 274.216 16.4742 275.187 16.0634C275.889 15.7674 276.44 15.3159 276.817 14.7438L275.488 13.8797Z" fill="#303030"/>
<path d="M279.708 7.44238V14.4975L280.835 14.9421L280.195 16.3964L278.95 15.8922C278.67 15.7746 278.48 15.5945 278.336 15.3912C278.199 15.184 278.096 14.8997 278.096 14.5168V7.44238H279.708Z" fill="#303030"/>
<path d="M282.629 12.7C282.63 12.0991 282.903 11.5604 283.334 11.1943L282.177 9.93945C281.393 10.6141 280.898 11.5999 280.897 12.6982C280.896 13.7969 281.39 14.7838 282.174 15.4602L283.329 14.2041C282.9 13.8364 282.629 13.2994 282.629 12.7Z" fill="#303030"/>
<path d="M284.685 14.7024C284.457 14.7018 284.238 14.6652 284.033 14.5989L283.48 16.1969C283.858 16.3202 284.263 16.3874 284.683 16.3881C286.515 16.3898 288.045 15.1255 288.399 13.4448L286.701 13.1074C286.508 14.0188 285.678 14.7032 284.685 14.7024Z" fill="#303030"/>
<path d="M284.69 9.01563C284.27 9.01515 283.865 9.08154 283.488 9.20377L284.036 10.8032C284.241 10.7372 284.461 10.7008 284.688 10.7008C285.684 10.7017 286.514 11.3904 286.702 12.304L288.401 11.9689C288.051 10.2859 286.523 9.01689 284.69 9.01563Z" fill="#303030"/>
<path d="M201.765 19.5676L187 19.5726V19.5387C187 19.52 187.024 19.3989 187.052 19.2695C187.081 19.1402 187.126 18.9343 187.152 18.8122C187.178 18.69 187.222 18.4826 187.25 18.3509C187.32 18.0293 187.388 17.7077 187.456 17.3858C187.482 17.2589 187.527 17.0513 187.555 16.9246C187.59 16.7623 187.625 16.6 187.659 16.4376C187.69 16.2966 187.735 16.0814 187.761 15.9592C187.787 15.837 187.828 15.6488 187.852 15.5407C187.876 15.4327 187.907 15.2866 187.92 15.2162C187.934 15.1456 187.978 14.9381 188.018 14.7549C188.052 14.6014 188.084 14.4476 188.116 14.2937C188.13 14.2232 188.174 14.0156 188.215 13.8324C188.255 13.6493 188.299 13.4416 188.313 13.3712C188.327 13.3007 188.371 13.093 188.412 12.91C188.452 12.7267 188.496 12.5229 188.509 12.4572C188.522 12.3914 188.558 12.2223 188.588 12.0814C188.618 11.9404 188.676 11.6752 188.716 11.492C188.756 11.3087 188.824 10.9897 188.867 10.783C188.911 10.5762 188.963 10.3303 188.983 10.2363C189.042 9.96001 189.101 9.6839 189.161 9.40781C189.191 9.27157 189.239 9.04861 189.268 8.91229C189.297 8.77609 189.342 8.56459 189.368 8.44253C189.394 8.32035 189.438 8.11665 189.466 7.98984C189.494 7.86293 189.542 7.63998 189.573 7.49433C189.604 7.34873 189.656 7.12579 189.688 6.99891C189.721 6.87206 189.766 6.71834 189.79 6.65726C189.814 6.59616 189.879 6.46378 189.935 6.36306L190.036 6.17992L190.129 6.06405C190.18 6.00037 190.271 5.8998 190.331 5.84046C190.391 5.78112 190.492 5.69189 190.556 5.64213C190.62 5.59232 190.713 5.52511 190.762 5.49284C190.811 5.46052 190.907 5.40392 190.976 5.36701C191.045 5.3302 191.142 5.28201 191.191 5.25988C191.24 5.23775 191.34 5.19726 191.414 5.16998C191.488 5.14286 191.629 5.09722 191.727 5.06864C191.825 5.04011 192.01 4.99705 192.137 4.97311C192.264 4.94901 192.465 4.91689 192.584 4.90169L192.799 4.874L207.573 4.86868L222.348 4.86328V4.89721C222.348 4.91585 222.324 5.03694 222.295 5.16634C222.259 5.33001 222.223 5.49388 222.188 5.6578C222.158 5.79877 222.113 6.00256 222.09 6.11053C222.056 6.26425 222.023 6.41797 221.99 6.5718C221.959 6.71751 221.911 6.94051 221.884 7.06722C221.856 7.19413 221.812 7.40172 221.785 7.52859C221.759 7.65539 221.714 7.86293 221.686 7.98981C221.654 8.1378 221.622 8.28584 221.591 8.43399C221.566 8.55143 221.521 8.76278 221.491 8.90375C221.461 9.04466 221.413 9.26762 221.384 9.39921C221.355 9.5307 221.311 9.73444 221.286 9.85189C221.261 9.96927 221.216 10.1807 221.186 10.3216C221.156 10.4626 221.108 10.6855 221.079 10.8171C221.05 10.9487 221.007 11.1485 220.983 11.2613C220.917 11.5746 220.85 11.8878 220.783 12.2009C220.759 12.3136 220.716 12.5136 220.687 12.645C220.651 12.813 220.615 12.981 220.579 13.1491C220.547 13.2948 220.503 13.5021 220.48 13.6103C220.456 13.7183 220.412 13.9221 220.382 14.0629C220.347 14.2282 220.312 14.3934 220.276 14.5585C220.248 14.69 220.203 14.8976 220.177 15.0198C220.151 15.1419 220.106 15.3533 220.077 15.4895C220.047 15.6257 220 15.8486 219.97 15.9849C219.941 16.1212 219.898 16.3249 219.873 16.4377C219.84 16.5914 219.807 16.7451 219.775 16.8988C219.74 17.0636 219.703 17.2281 219.666 17.3925L219.613 17.6297L219.549 17.7938C219.513 17.8842 219.46 18.0042 219.431 18.0605C219.401 18.1169 219.341 18.2164 219.297 18.2816C219.253 18.3468 219.192 18.4302 219.161 18.4671C219.13 18.5041 219.037 18.5994 218.954 18.6789L218.803 18.8235L218.658 18.922C218.579 18.9762 218.493 19.0314 218.467 19.0445C218.442 19.0577 218.346 19.1046 218.254 19.1488C218.161 19.1929 218.031 19.2491 217.964 19.2735C217.897 19.2982 217.765 19.3399 217.669 19.3663C217.574 19.3929 217.472 19.4189 217.443 19.4243C217.413 19.4298 217.311 19.4499 217.215 19.4693C217.12 19.4886 216.927 19.5176 216.786 19.5335L216.531 19.5625L201.765 19.5676ZM196.512 15.9165H196.896L196.907 15.8894C196.913 15.8745 196.918 15.8396 196.918 15.8119C196.918 15.7839 196.931 15.6827 196.946 15.5868C196.962 15.4909 196.998 15.2702 197.027 15.0964C197.056 14.9225 197.099 14.6613 197.123 14.5156C197.146 14.3777 197.168 14.2396 197.188 14.1013C197.2 14.0191 197.214 13.9518 197.22 13.9518C197.226 13.9518 197.251 13.9881 197.275 14.0326L197.32 14.1133L197.419 14.2087L197.518 14.3041L197.64 14.3508L197.762 14.3975L197.907 14.4155L198.053 14.4335L198.237 14.4227L198.422 14.4119L198.621 14.3625L198.821 14.313L198.928 14.2663C198.987 14.2406 199.092 14.1845 199.161 14.1416L199.286 14.0638L199.402 13.9522C199.467 13.8911 199.557 13.7927 199.603 13.734C199.65 13.6751 199.688 13.6226 199.688 13.6174C199.688 13.6121 199.711 13.5758 199.739 13.5364C199.766 13.4972 199.823 13.3881 199.865 13.2942C199.907 13.2002 199.972 13.0311 200.011 12.9183L200.08 12.7133L200.116 12.5358C200.135 12.4381 200.161 12.2767 200.172 12.177L200.193 11.9958L200.181 11.8421L200.169 11.6884L200.132 11.5345L200.094 11.3808L200.034 11.2657L199.974 11.1505L199.857 11.0324L199.74 10.9142L199.602 10.846L199.464 10.7778L199.313 10.743L199.161 10.7083L199.009 10.6977L198.857 10.687L198.688 10.7056L198.518 10.7241L198.38 10.7578L198.242 10.7914L198.122 10.8446C198.056 10.8737 197.96 10.9233 197.909 10.9548C197.858 10.9862 197.805 11.0223 197.791 11.0351C197.778 11.0478 197.746 11.0715 197.72 11.0876L197.673 11.1169L197.706 10.9668C197.724 10.8843 197.739 10.8073 197.739 10.7954L197.74 10.7741H197.085L197.027 11.1201C196.996 11.3104 196.946 11.6044 196.916 11.7736C196.852 12.1467 196.786 12.5196 196.72 12.8925C196.691 13.0569 196.642 13.3184 196.612 13.4733C196.583 13.6284 196.539 13.8552 196.515 13.9775C196.492 14.0996 196.447 14.3301 196.417 14.4899C196.381 14.6778 196.344 14.8658 196.307 15.0536C196.272 15.2304 196.237 15.4068 196.2 15.5832C196.171 15.7241 196.143 15.8568 196.137 15.878L196.128 15.9164L196.512 15.9165ZM198.166 13.9413L198.017 13.9499L197.919 13.9334L197.822 13.917L197.723 13.8738L197.624 13.8305L197.555 13.7673L197.485 13.7042L197.445 13.6188C197.423 13.5718 197.395 13.4919 197.383 13.4413L197.36 13.3494L197.369 13.2021L197.378 13.055L197.424 12.8243C197.459 12.648 197.493 12.4715 197.525 12.2948C197.556 12.1303 197.601 11.8893 197.627 11.7593L197.674 11.5229L197.776 11.4414C197.833 11.3966 197.922 11.3365 197.975 11.308L198.071 11.2559L198.196 11.2189L198.321 11.1819L198.482 11.1729L198.643 11.1638L198.774 11.1906L198.904 11.2172L198.997 11.2579L199.089 11.2986L199.167 11.3731L199.244 11.4476L199.286 11.5265C199.309 11.5698 199.341 11.6548 199.358 11.7151L199.388 11.8249L199.379 12.1496L199.37 12.4742L199.324 12.666C199.298 12.7715 199.25 12.933 199.217 13.0248L199.156 13.1917L199.081 13.3268C199.04 13.401 198.977 13.5015 198.941 13.5499C198.905 13.5984 198.847 13.6612 198.812 13.6893C198.771 13.7232 198.728 13.756 198.684 13.7875L198.619 13.8342L198.467 13.8834L198.316 13.9327L198.166 13.9413ZM201.877 14.4108L202.074 14.4131L202.27 14.3959C202.378 14.3865 202.555 14.3668 202.663 14.3523C202.771 14.3378 202.958 14.3051 203.078 14.2799L203.297 14.2339L203.308 14.1569C203.314 14.1146 203.338 13.9886 203.362 13.8767L203.406 13.6737L203.396 13.6645L203.387 13.6553L203.32 13.6861C203.283 13.703 203.169 13.7435 203.065 13.776L202.878 13.835L202.681 13.8715L202.485 13.908L202.172 13.9086L201.859 13.9091L201.752 13.8763C201.693 13.8584 201.606 13.8255 201.559 13.8032L201.474 13.7628L201.403 13.7018L201.332 13.6408L201.277 13.5488L201.222 13.4566L201.188 13.3413L201.153 13.2258L201.153 13.0122L201.153 12.7986L201.183 12.608L201.214 12.4175L201.483 12.4055L201.752 12.3935L202.746 12.3997L203.74 12.4057L203.77 12.284C203.786 12.217 203.812 12.0787 203.826 11.9765L203.852 11.7907L203.853 11.6345L203.853 11.4782L203.825 11.3614L203.797 11.2448L203.75 11.1676C203.724 11.1251 203.679 11.0635 203.649 11.0307C203.619 10.9979 203.566 10.9517 203.531 10.928C203.496 10.9043 203.427 10.8645 203.378 10.8395L203.289 10.7941L203.132 10.7582L202.976 10.7223L202.784 10.7047L202.592 10.6871L202.413 10.6982L202.234 10.7094L202.02 10.7487L201.805 10.7881L201.671 10.8393C201.598 10.8674 201.485 10.9188 201.421 10.9534C201.357 10.9881 201.269 11.0444 201.225 11.0787C201.18 11.1129 201.104 11.1796 201.054 11.2267C201.005 11.2739 200.932 11.3585 200.892 11.4149C200.852 11.4713 200.791 11.5712 200.756 11.637C200.721 11.7028 200.676 11.795 200.655 11.842C200.635 11.889 200.597 11.9851 200.572 12.0556C200.547 12.1261 200.507 12.2606 200.484 12.3546C200.457 12.4685 200.433 12.583 200.413 12.6982L200.385 12.8712L200.385 13.1254L200.385 13.3796L200.412 13.4906C200.427 13.5517 200.456 13.644 200.476 13.6957C200.496 13.7473 200.533 13.8243 200.558 13.8664C200.583 13.9087 200.637 13.9769 200.677 14.0178C200.718 14.0587 200.791 14.1208 200.84 14.1558C200.89 14.1906 200.977 14.2398 201.035 14.2651L201.14 14.3107L201.286 14.3446C201.367 14.3631 201.488 14.3853 201.557 14.3937C201.625 14.402 201.769 14.4098 201.877 14.4108ZM202.214 12.0043C201.719 12.0043 201.314 12.001 201.314 11.9967C201.314 11.9925 201.335 11.933 201.361 11.8644C201.387 11.7957 201.432 11.6935 201.462 11.6372L201.515 11.5349L201.634 11.4226L201.752 11.3101L201.868 11.257C201.932 11.2278 202.016 11.196 202.056 11.1863C202.095 11.1767 202.208 11.1639 202.306 11.1579L202.485 11.1469L202.622 11.1637L202.759 11.1806L202.859 11.2243L202.958 11.268L203.013 11.3243C203.043 11.3554 203.079 11.401 203.093 11.4258L203.118 11.4709L203.134 11.571L203.151 11.6711L203.132 11.8377L203.113 12.0042L202.214 12.0043ZM207.56 14.4109L207.757 14.4131L207.98 14.3878C208.103 14.3739 208.266 14.3509 208.343 14.3366C208.436 14.3186 208.529 14.2977 208.62 14.2737C208.695 14.2533 208.764 14.2314 208.772 14.2248C208.779 14.2182 208.801 14.1407 208.819 14.0525C208.837 13.9643 208.86 13.8459 208.869 13.7895C208.879 13.7332 208.884 13.6841 208.881 13.6803C208.877 13.6767 208.864 13.6814 208.851 13.6909C208.839 13.7005 208.751 13.7357 208.656 13.7693L208.484 13.8304L208.239 13.8757L207.994 13.9212L207.786 13.9144L207.578 13.9076L207.459 13.8683L207.341 13.829L207.249 13.7526L207.158 13.6761L207.097 13.5705L207.037 13.465L207.008 13.3236L206.979 13.1824L206.979 12.9991L206.979 12.8158L207.014 12.5936L207.049 12.3715L207.087 12.2519C207.107 12.1861 207.13 12.1093 207.138 12.0811C207.146 12.0529 207.179 11.9722 207.211 11.9017C207.243 11.8313 207.3 11.7224 207.338 11.6597L207.408 11.5458L207.493 11.4616L207.578 11.3774L207.668 11.3242L207.758 11.2709L207.873 11.2368C207.937 11.2181 208.049 11.1938 208.123 11.1829L208.257 11.1629L208.453 11.1723L208.65 11.1818L208.882 11.2263L209.115 11.2707L209.209 11.3043C209.261 11.3229 209.306 11.338 209.309 11.338C209.311 11.338 209.324 11.2746 209.336 11.197C209.349 11.1195 209.371 10.992 209.386 10.9137C209.4 10.8353 209.409 10.7678 209.404 10.7637C209.4 10.7595 209.33 10.749 209.249 10.7402C209.168 10.7314 208.948 10.7157 208.76 10.7053L208.418 10.6865L208.176 10.7042L207.935 10.722L207.756 10.7578L207.578 10.7937L207.463 10.8377C207.399 10.8619 207.307 10.9057 207.257 10.9347C207.209 10.9626 207.162 10.9917 207.115 11.0219C207.087 11.0407 207.003 11.1141 206.928 11.1849L206.791 11.3137L206.714 11.4207C206.672 11.4796 206.6 11.6022 206.553 11.6934L206.468 11.8592L206.402 12.0385C206.366 12.1371 206.316 12.2986 206.291 12.3972L206.245 12.5766L206.228 12.739L206.212 12.9013L206.212 13.1148L206.212 13.3284L206.229 13.4525L206.246 13.5768L206.299 13.7047L206.353 13.8324L206.415 13.9247L206.476 14.0172L206.575 14.1096L206.673 14.202L206.777 14.2547L206.881 14.3072L207.018 14.3435C207.093 14.3634 207.201 14.3863 207.259 14.3944C207.316 14.4024 207.452 14.4099 207.56 14.4109ZM210.499 14.4047L210.741 14.3981L210.892 14.3609L211.044 14.3236L211.143 14.2793C211.197 14.2548 211.285 14.2067 211.339 14.1721C211.393 14.1376 211.477 14.0719 211.525 14.0264C211.573 13.9806 211.645 13.9027 211.684 13.8531C211.723 13.8035 211.758 13.7652 211.761 13.7679C211.764 13.7707 211.755 13.8497 211.741 13.9435C211.727 14.0373 211.715 14.1621 211.715 14.2208L211.715 14.3276H212.371L212.381 14.0841L212.391 13.8407L212.437 13.5246C212.463 13.3508 212.505 13.0933 212.53 12.9523C212.555 12.8114 212.598 12.5731 212.627 12.4227C212.655 12.2724 212.7 12.0379 212.726 11.9017L212.774 11.654L212.776 11.44L212.777 11.2261L212.727 11.1272L212.676 11.0283L212.607 10.9654L212.539 10.9023L212.426 10.8478L212.313 10.7931L212.146 10.7574L211.978 10.7216L211.746 10.7049L211.515 10.6881L211.218 10.7058C211.054 10.7154 210.823 10.7346 210.705 10.7482L210.491 10.7731L210.345 10.7736L210.198 10.7742L210.177 10.8725C210.166 10.9265 210.133 11.0548 210.105 11.1578C210.077 11.2607 210.057 11.3472 210.06 11.3502C210.063 11.3534 210.141 11.3363 210.233 11.3126C210.326 11.2888 210.522 11.2497 210.67 11.2257L210.938 11.182L211.179 11.1726L211.42 11.163L211.576 11.189L211.731 11.2151L211.835 11.264L211.938 11.313L211.996 11.3957L212.054 11.4785L212.054 11.6089L212.053 11.7394L212.022 11.8826L211.991 12.0257L211.348 12.028L210.705 12.0302L210.495 12.0854C210.379 12.1157 210.251 12.156 210.21 12.1749C210.169 12.1938 210.128 12.2093 210.119 12.2093C210.11 12.2093 210.041 12.2457 209.966 12.2904L209.83 12.3715L209.722 12.4741C209.663 12.5304 209.587 12.615 209.554 12.6621C209.521 12.709 209.467 12.807 209.434 12.8801L209.375 13.0127L209.348 13.162L209.32 13.311V13.6242L209.346 13.7546L209.372 13.8848L209.421 13.9699C209.447 14.0166 209.496 14.0851 209.529 14.1221L209.59 14.1891L209.696 14.2512L209.803 14.3134L209.926 14.3464C209.993 14.3645 210.095 14.3866 210.153 14.3954L210.259 14.4112L210.499 14.4047ZM210.723 13.9269L210.58 13.9342L210.485 13.9111C210.433 13.8984 210.354 13.8702 210.31 13.8483L210.229 13.8085L210.184 13.7583C210.16 13.7306 210.123 13.6765 210.102 13.6379L210.064 13.5675L210.056 13.4032L210.049 13.239L210.079 13.1394C210.096 13.0846 210.135 12.9895 210.166 12.9281L210.222 12.8164L210.331 12.7136L210.439 12.6107L210.554 12.5578L210.669 12.5049L210.812 12.4723L210.955 12.4399H211.848L211.877 12.451L211.905 12.4622L211.881 12.5963C211.868 12.67 211.837 12.8034 211.812 12.8926C211.787 12.9819 211.742 13.113 211.714 13.1843C211.685 13.2553 211.661 13.3182 211.661 13.324C211.661 13.3297 211.631 13.3815 211.595 13.4391L211.53 13.5439L211.423 13.6454C211.364 13.7011 211.309 13.7468 211.302 13.7468C211.294 13.7468 211.258 13.766 211.221 13.7895L211.155 13.8322L211.01 13.876L210.866 13.9198L210.723 13.9269ZM216.54 14.4108L216.709 14.4128L216.87 14.3878C216.959 14.3742 217.071 14.3521 217.12 14.3387C217.169 14.3254 217.258 14.291 217.317 14.2621L217.424 14.2096L217.516 14.132L217.609 14.0543L217.706 13.9304C217.759 13.8624 217.808 13.7951 217.813 13.781L217.824 13.7554L217.815 13.8408C217.808 13.898 217.8 13.955 217.79 14.0117C217.781 14.0587 217.769 14.149 217.763 14.2123L217.751 14.3277H218.452V14.097L218.505 13.6614C218.535 13.4217 218.578 13.1028 218.602 12.9524C218.625 12.8021 218.662 12.5869 218.683 12.4742C218.704 12.3614 218.741 12.1576 218.766 12.0214C218.79 11.8852 218.834 11.6469 218.864 11.4918C218.894 11.3368 218.941 11.0908 218.969 10.9451C218.997 10.7995 219.041 10.5727 219.067 10.4412C219.092 10.3097 219.138 10.0789 219.168 9.92867C219.2 9.77183 219.233 9.61524 219.266 9.45881C219.29 9.35078 219.31 9.25662 219.31 9.24959V9.23674H218.545L218.533 9.34351C218.527 9.40233 218.498 9.59629 218.468 9.7749C218.433 9.98572 218.398 10.1964 218.361 10.407C218.34 10.5285 218.319 10.65 218.298 10.7715L218.289 10.8284L218.259 10.8162C218.242 10.8094 218.152 10.7855 218.059 10.7631L217.889 10.7224L217.657 10.7051L217.424 10.6878L217.228 10.7053L217.031 10.7228L216.852 10.766L216.674 10.8092L216.504 10.8884L216.334 10.9675L216.209 11.056L216.084 11.1445L215.976 11.2553C215.916 11.3163 215.831 11.4169 215.785 11.4792L215.702 11.5923L215.605 11.7855C215.552 11.8918 215.487 12.0327 215.461 12.0983C215.435 12.1642 215.389 12.3099 215.359 12.4224L215.304 12.6268L215.277 12.8924L215.25 13.1576L215.27 13.3712L215.291 13.5848L215.315 13.6616C215.328 13.704 215.355 13.7794 215.376 13.8291L215.414 13.9196L215.483 14.0086L215.552 14.0977L215.63 14.1592L215.709 14.2207L215.816 14.2716C215.875 14.2995 215.974 14.3358 216.036 14.3519C216.098 14.3681 216.198 14.3877 216.259 14.3953C216.32 14.4025 216.446 14.4097 216.54 14.4108ZM216.844 13.9261L216.709 13.9328L216.618 13.9174C216.568 13.9087 216.488 13.8855 216.44 13.8659L216.353 13.8303L216.28 13.7729L216.207 13.7155L216.152 13.6158L216.098 13.5162L216.073 13.4051L216.048 13.2941L216.05 13.072L216.052 12.8499L216.081 12.6533L216.11 12.457L216.155 12.3203C216.179 12.2452 216.2 12.1742 216.2 12.1627C216.2 12.1511 216.224 12.0898 216.254 12.0261C216.288 11.9524 216.325 11.8797 216.364 11.8078C216.394 11.7514 216.452 11.6635 216.492 11.6125C216.531 11.5615 216.602 11.4846 216.648 11.4416C216.695 11.3988 216.769 11.3425 216.813 11.3166L216.893 11.2696L217.034 11.2231L217.174 11.1765L217.469 11.1763H217.764L217.934 11.2214C218.027 11.2462 218.126 11.2748 218.154 11.2852L218.205 11.304L218.195 11.3509C218.189 11.3766 218.168 11.49 218.147 11.6027C218.127 11.7155 218.086 11.9308 218.057 12.0811C218.028 12.2314 217.984 12.4583 217.959 12.5851C217.933 12.712 217.897 12.8734 217.877 12.9438C217.857 13.0163 217.836 13.0885 217.816 13.1608C217.801 13.2096 217.768 13.2942 217.741 13.3487C217.714 13.4031 217.666 13.4824 217.636 13.5247C217.605 13.567 217.553 13.6256 217.52 13.6548C217.487 13.6842 217.416 13.7362 217.362 13.7705L217.263 13.8331L217.121 13.8761L216.979 13.9192L216.844 13.9261ZM190.543 14.3277H190.978L191.009 14.1441C191.026 14.043 191.059 13.8489 191.083 13.7128L191.181 13.149C191.212 12.9751 191.257 12.7176 191.282 12.5766C191.308 12.4357 191.348 12.2171 191.371 12.0909C191.395 11.9645 191.419 11.8569 191.425 11.8516L191.435 11.842H193.77L193.783 11.8544L193.796 11.8668L193.775 11.9654C193.764 12.0197 193.731 12.1871 193.702 12.3374C193.673 12.4877 193.624 12.7415 193.593 12.9012C193.561 13.0693 193.528 13.2373 193.495 13.4052C193.471 13.5227 193.423 13.7685 193.389 13.9518C193.354 14.1351 193.326 14.2946 193.326 14.3064L193.326 14.3277H194.198L194.217 14.2209C194.228 14.1622 194.245 14.0565 194.255 13.986C194.265 13.9156 194.29 13.7656 194.31 13.6529C194.33 13.5402 194.37 13.3171 194.399 13.1574C194.427 12.9977 194.476 12.7248 194.506 12.551C194.536 12.3771 194.58 12.1234 194.605 11.9873C194.636 11.8162 194.668 11.6454 194.702 11.4747C194.731 11.329 194.779 11.0831 194.809 10.928C194.839 10.773 194.883 10.5385 194.908 10.407C194.933 10.2755 194.978 10.0371 195.009 9.8774C195.039 9.71764 195.078 9.53122 195.094 9.46308L195.124 9.33913H194.241L194.229 9.42039C194.223 9.46491 194.201 9.59006 194.182 9.69796C194.162 9.80613 194.127 9.99822 194.103 10.1251C194.079 10.252 194.036 10.494 194.007 10.6633C193.978 10.829 193.95 10.9948 193.923 11.1608L193.894 11.3507L193.246 11.3633L192.598 11.3758L192.055 11.3635C191.756 11.3567 191.51 11.3498 191.508 11.3483C191.506 11.3466 191.516 11.2802 191.531 11.2007C191.55 11.0982 191.57 10.9959 191.592 10.8938C191.619 10.7629 191.646 10.632 191.671 10.5008C191.696 10.374 191.725 10.2164 191.734 10.1506C191.744 10.0849 191.764 9.97537 191.779 9.90711C191.794 9.83903 191.822 9.69557 191.842 9.58838C191.862 9.4811 191.883 9.38114 191.889 9.36622L191.9 9.33909H191.024L190.996 9.48864C190.981 9.57089 190.96 9.68813 190.951 9.74913C190.941 9.81024 190.908 10.0062 190.878 10.1848C190.848 10.3633 190.803 10.6286 190.779 10.7742L190.681 11.3635C190.646 11.5687 190.61 11.7738 190.572 11.9785C190.54 12.1466 190.508 12.3146 190.475 12.4825C190.451 12.5999 190.407 12.8229 190.376 12.9779C190.344 13.1404 190.31 13.3027 190.276 13.4649C190.252 13.5775 190.225 13.7082 190.217 13.7552C190.208 13.8022 190.18 13.9377 190.155 14.0564C190.13 14.1749 190.109 14.2845 190.109 14.2999V14.3276L190.543 14.3277ZM195.35 14.3277H195.735L195.745 14.3006C195.751 14.2857 195.756 14.2467 195.756 14.2141C195.756 14.1813 195.78 14.0109 195.81 13.8353C195.877 13.4354 195.946 13.0358 196.017 12.6364C196.048 12.4682 196.08 12.3002 196.113 12.1324C196.142 11.9915 196.185 11.7724 196.21 11.6455C196.235 11.5187 196.284 11.2774 196.319 11.1092C196.354 10.9411 196.387 10.7968 196.392 10.7886L196.402 10.7736L196.013 10.7781L195.625 10.7827L195.592 11.005C195.575 11.1271 195.536 11.3693 195.506 11.543C195.476 11.7169 195.431 11.9822 195.406 12.1324C195.375 12.3121 195.343 12.4915 195.308 12.6705C195.279 12.8162 195.235 13.0391 195.21 13.166C195.186 13.293 195.141 13.5158 195.111 13.6614C195.081 13.8071 195.041 13.9993 195.022 14.0885C195.003 14.1779 194.983 14.2682 194.977 14.2892L194.966 14.3277H195.35ZM204.34 14.3277H204.722L204.733 14.1734C204.74 14.0885 204.761 13.9175 204.781 13.7932C204.802 13.669 204.843 13.4214 204.873 13.2429C204.911 13.0222 204.953 12.802 204.998 12.5825C205.036 12.3978 205.079 12.2142 205.094 12.1746C205.109 12.1349 205.12 12.092 205.12 12.0791C205.12 12.0662 205.149 11.996 205.184 11.9232C205.219 11.8503 205.285 11.7388 205.329 11.6752L205.411 11.5598L205.52 11.4633L205.629 11.3668L205.763 11.3054L205.898 11.244L206.103 11.2451L206.309 11.2462L206.41 11.2749C206.465 11.2909 206.516 11.3039 206.522 11.3039C206.527 11.3039 206.532 11.2857 206.532 11.2635C206.532 11.2414 206.552 11.1288 206.577 11.0134C206.602 10.8981 206.622 10.7989 206.622 10.793C206.622 10.787 206.563 10.7651 206.492 10.7444C206.421 10.7238 206.322 10.7021 206.273 10.6963L206.184 10.6857L206.068 10.7053C206.004 10.7161 205.909 10.74 205.857 10.7584C205.804 10.7766 205.718 10.8183 205.665 10.8507C205.612 10.8834 205.529 10.9467 205.481 10.9915C205.433 11.0365 205.353 11.1271 205.302 11.1928C205.263 11.244 205.224 11.2952 205.185 11.3466L205.159 11.3807L205.174 11.3124C205.183 11.2747 205.207 11.1517 205.227 11.0391C205.248 10.9263 205.269 10.8205 205.274 10.8041L205.284 10.7742H204.602V10.8154C204.602 10.8381 204.582 10.9745 204.558 11.1186C204.533 11.2628 204.492 11.5037 204.467 11.6541C204.443 11.8044 204.398 12.0658 204.369 12.2349C204.338 12.4145 204.305 12.5939 204.271 12.7729C204.203 13.1149 204.134 13.4566 204.064 13.798C204.034 13.9437 203.998 14.1157 203.984 14.1803C203.97 14.2447 203.959 14.3042 203.959 14.3126V14.3276L204.34 14.3277ZM213.398 14.3277H213.788V14.0994L213.833 13.8163C213.858 13.6608 213.898 13.4141 213.924 13.2685C213.949 13.1229 213.98 12.9384 213.993 12.8584C214.006 12.7786 214.041 12.6057 214.071 12.4741C214.1 12.3425 214.137 12.2003 214.152 12.158C214.168 12.1158 214.181 12.0714 214.181 12.0595C214.181 12.0475 214.214 11.9708 214.254 11.8889L214.328 11.74L214.425 11.6166L214.523 11.4933L214.629 11.4168C214.687 11.3747 214.781 11.319 214.838 11.2929L214.94 11.2454L215.164 11.2468L215.387 11.2483L215.475 11.2754L215.563 11.3024L215.578 11.2935L215.593 11.2848L215.593 11.2303C215.594 11.2002 215.613 11.0887 215.636 10.9823L215.678 10.7889L215.631 10.7713C215.586 10.7553 215.54 10.7405 215.494 10.7269L215.405 10.6999L215.244 10.7004L215.083 10.7008L214.952 10.7449L214.821 10.7889L214.723 10.8457L214.624 10.9025L214.496 11.0306L214.368 11.1587L214.3 11.2582C214.262 11.3128 214.229 11.355 214.226 11.352C214.223 11.3491 214.243 11.2352 214.271 11.099C214.299 10.9627 214.323 10.8339 214.323 10.8128L214.324 10.7744H213.663V10.7853C213.663 10.7912 213.646 10.9009 213.626 11.0288C213.606 11.1567 213.565 11.4035 213.536 11.5774C213.501 11.7853 213.465 11.9931 213.429 12.2009C213.398 12.3806 213.365 12.5599 213.331 12.7391C213.306 12.8659 213.262 13.0888 213.233 13.2345C213.204 13.3802 213.156 13.6147 213.127 13.7556L213.04 14.1699L213.008 14.3278L213.398 14.3277ZM196.106 10.1589L196.215 10.1593L196.301 10.1312L196.387 10.1031L196.464 10.029L196.54 9.95511L196.58 9.85641L196.62 9.75777L196.622 9.61259L196.623 9.46746L196.587 9.41066L196.552 9.35392L196.49 9.31721L196.427 9.28031H196.159L196.067 9.31947L195.976 9.35861L195.923 9.413L195.87 9.46746L195.828 9.56141L195.786 9.65532L195.778 9.80171L195.77 9.94804L195.809 10.0208L195.848 10.0935L195.923 10.126L195.998 10.1584L196.106 10.1589Z" fill="#303030"/>
<path d="M2.48291 21.2504C1.11328 21.2504 0 20.1674 0 18.835V5.33321C0 4.00169 1.11328 2.91797 2.48291 2.91797H24.2964C25.6653 2.91797 26.7793 4.00169 26.7793 5.33321V18.835C26.7793 20.1674 25.6653 21.2504 24.2964 21.2504H2.48291ZM1.57837 5.64834V18.5199C1.57837 19.2789 2.21216 19.8951 2.99243 19.8951H23.7869C24.5662 19.8951 25.2007 19.2789 25.2007 18.5199V5.64834C25.2007 4.89032 24.5662 4.27312 23.7869 4.27312H2.99243C2.21216 4.27312 1.57837 4.89032 1.57837 5.64834ZM22.9309 14.7363L21.5684 13.0116L20.2048 14.7363H15.8418V9.43204H20.3418L21.4324 11.0235L22.7959 9.43204H24.2954L22.2515 12.0837L24.2954 14.7363H22.9309ZM16.9353 13.6753H19.5244L20.7522 12.0855L19.6614 10.6261H16.9353V11.5532H19.3887V12.6142H16.9353V13.6753ZM13.2532 14.7363V10.8913L11.7529 14.7363H10.6621L9.16187 10.7583V14.7363H6.84521L6.4375 13.543H4.11914L3.70972 14.7363H2.48218L4.52686 9.43204H6.0271L7.93604 14.471V9.43204H9.84399L11.2075 13.0116L12.571 9.43204H14.344V14.7363H13.2532ZM4.52686 12.349H5.89136L5.20898 10.4931L4.52686 12.349Z" fill="#303030"/>
<path d="M461.197 21.7742L456.747 17.4453H457.44C458.359 17.4453 459.223 17.097 459.873 16.4653L463.4 13.0347C463.646 12.7949 464.077 12.7941 464.323 13.0347L467.837 16.4526C468.487 17.0847 469.351 17.4328 470.271 17.4328H470.694L466.231 21.7742C465.536 22.4501 464.625 22.788 463.714 22.788C462.803 22.788 461.892 22.4501 461.197 21.7742ZM453.043 13.8421C451.652 12.4899 451.652 10.2979 453.043 8.94615L455.75 6.31224C455.807 6.33306 455.867 6.34787 455.932 6.34787H457.44C458.073 6.34787 458.694 6.59786 459.142 7.0339L462.669 10.4646C462.998 10.7841 463.43 10.9443 463.861 10.9443C464.293 10.9443 464.725 10.7841 465.054 10.4643L468.568 7.04624C469.016 6.61036 469.637 6.36022 470.271 6.36022H471.497C471.565 6.36022 471.629 6.34571 471.688 6.32258L474.385 8.94615C475.776 10.2979 475.776 12.4899 474.385 13.8421L471.689 16.4654C471.629 16.4422 471.565 16.4278 471.497 16.4278H470.271C469.637 16.4278 469.016 16.1778 468.568 15.7416L465.054 12.3241C464.417 11.7039 463.306 11.7042 462.669 12.3237L459.142 15.7543C458.694 16.1902 458.073 16.4403 457.44 16.4403H455.932C455.867 16.4403 455.807 16.4551 455.75 16.4759L453.043 13.8421ZM463.4 9.75387L459.873 6.32286C459.223 5.69101 458.359 5.34276 457.44 5.34276H456.747L461.197 1.01396C462.587 -0.337987 464.841 -0.337987 466.231 1.01396L470.694 5.35525H470.271C469.351 5.35525 468.487 5.70336 467.837 6.33538L464.323 9.75357C464.196 9.87774 464.029 9.9396 463.862 9.93959C463.694 9.93959 463.527 9.87753 463.4 9.75387Z" fill="#303030"/>
<path d="M542.777 24H511.511C510.124 23.9981 509.001 22.9047 509 21.556L509 2.44235C509.002 1.09423 510.125 0.00184044 511.511 0L542.777 2.96845e-05C544.163 0.00184044 545.286 1.09426 545.288 2.44235L545.288 21.556C545.287 22.9047 544.164 23.9982 542.777 24ZM511.511 1.39832C510.919 1.39832 510.439 1.86499 510.439 2.44066L510.439 21.556C510.439 22.1317 510.919 22.5983 511.511 22.5983H542.777C543.369 22.5983 543.849 22.1317 543.849 21.556V2.44235C543.849 1.86668 543.369 1.39998 542.777 1.39998L511.511 1.39832Z" fill="#303030"/>
<rect x="539.251" y="3.62793" width="2.308" height="16.8315" fill="#303030"/>
<rect x="535.798" y="3.62793" width="2.308" height="14.5865" fill="#303030"/>
<rect x="518.494" y="3.62793" width="2.308" height="14.5865" fill="#303030"/>
<rect x="530.017" y="3.62793" width="2.308" height="14.5865" fill="#303030"/>
<rect x="524.255" y="3.62793" width="3.37963" height="14.5865" fill="#303030"/>
<rect x="516.223" y="3.62793" width="1.10805" height="14.5865" fill="#303030"/>
<rect x="521.983" y="3.62793" width="1.10805" height="14.5865" fill="#303030"/>
<rect x="533.49" y="3.62793" width="1.10805" height="14.5865" fill="#303030"/>
<rect x="512.713" y="3.62793" width="2.308" height="16.8315" fill="#303030"/>
<path d="M331.341 21.0892C326.191 21.0892 322.001 17.0139 322.001 12.0035C322.001 6.99412 326.191 2.91797 331.341 2.91797H342.607C347.757 2.91797 351.948 6.99412 351.948 12.0035C351.948 17.0139 347.757 21.0892 342.607 21.0892H331.341ZM322.539 12.006C322.539 16.7268 326.488 20.5675 331.341 20.5675C336.195 20.5675 340.143 16.7268 340.143 12.006C340.143 7.28538 336.195 3.44386 331.341 3.44386C326.488 3.44386 322.539 7.28538 322.539 12.006ZM333.407 6.81625C335.55 7.62343 337.069 9.63995 337.069 12.006C337.069 14.3724 335.548 16.3906 333.407 17.196V6.81625ZM325.616 12.006V12.0035C325.616 9.63734 327.135 7.61916 329.276 6.81376V17.196C327.138 16.3906 325.616 14.3742 325.616 12.006Z" fill="#303030"/>
<g filter="url(#filter0_d_42018_22)">
<path d="M144.345 7.21683C143.806 7.02137 142.96 6.80859 141.913 6.80859C139.237 6.80859 137.346 8.12392 137.334 10.0063C137.312 11.3899 138.675 12.1697 139.705 12.636C140.763 13.1134 141.117 13.4107 141.112 13.8342C141.106 14.4868 140.266 14.7779 139.492 14.7779C138.418 14.7779 137.835 14.6354 136.936 14.2689L136.602 14.1152L136.221 16.2898C136.875 16.5494 138.047 16.7774 139.257 16.7988C142.108 16.7988 143.967 15.4947 143.988 13.484C144.01 12.3814 143.28 11.5446 141.726 10.8544C140.788 10.4095 140.201 10.1061 140.201 9.64999C140.201 9.24684 140.702 8.82333 141.749 8.82333C142.648 8.80704 143.281 8.99843 143.776 9.18881L144.033 9.29978L144.408 7.20564L144.345 7.21683ZM151.302 6.98879H149.208C148.554 6.98879 148.069 7.15881 147.78 7.79L143.756 16.6603H146.602L147.176 15.2076L150.647 15.2127C150.734 15.5517 150.979 16.6593 150.979 16.6593H153.492L151.302 6.98879ZM133.481 6.90938H136.19L134.495 16.585H131.785L133.481 6.90429V6.90938ZM126.591 12.2379L126.868 13.5848L129.522 6.98879H132.395L128.121 16.6441H125.26L122.916 8.46803C122.867 8.3255 122.807 8.22878 122.659 8.1453C121.869 7.74215 120.981 7.41332 120 7.18528L120.032 6.98268H124.404C124.993 7.00406 125.473 7.18528 125.636 7.80018L126.591 12.243L126.591 12.2379ZM147.948 13.2295L149.034 10.5204C149.017 10.5459 149.256 9.96355 149.393 9.59705L149.578 10.4288L150.206 13.2234H147.948V13.2295Z" fill="#303030"/>
</g>
<defs>
<filter id="filter0_d_42018_22" x="116" y="6.80859" width="41.4922" height="17.9902" filterUnits="userSpaceOnUse" color-interpolation-filters="sRGB">
<feFlood flood-opacity="0" result="BackgroundImageFix"/>
<feColorMatrix in="SourceAlpha" type="matrix" values="0 0 0 0 0 0 0 0 0 0 0 0 0 0 0 0 0 0 127 0" result="hardAlpha"/>
<feOffset dy="4"/>
<feGaussianBlur stdDeviation="2"/>
<feComposite in2="hardAlpha" operator="out"/>
<feColorMatrix type="matrix" values="0 0 0 0 0 0 0 0 0 0 0 0 0 0 0 0 0 0 0.25 0"/>
<feBlend mode="normal" in2="BackgroundImageFix" result="effect1_dropShadow_42018_22"/>
<feBlend mode="normal" in="SourceGraphic" in2="effect1_dropShadow_42018_22" result="shape"/>
</filter>
</defs>
</svg>
